# xmcd
#
# Track frame offsets:
#	150
#	10577
#	23985
#	41240
#	52582
#	63022
#	78990
#	93027
#	107305
#	121525
#	138967
#
# Disc length: 2089 seconds
#
# Revision: 0
# Processed by: cddbd v1.4PL0 Copyright (c) Steve Scherf et al.
# Submitted via: EasyCDDAExtractor 5.0.5.1
#
DISCID=6c08270b
DTITLE=Mario Cuozzo - Heavenly Gospel
DYEAR=2000
DGENRE=Gospel
TTITLE0=You must come in at the door
TTITLE1=Where the roses never fade
TTITLE2=Never grow old
TTITLE3=Gathering buds
TTITLE4=Somebody loves me
TTITLE5=My heavenly bank
TTITLE6=The unclouded day
TTITLE7=I've just heard from heaven
TTITLE8=Insured beyond the grave
TTITLE9=Jubilee's coming
TTITLE10=I see jesus
EXTD=
EXTT0=
EXTT1=
EXTT2=
EXTT3=
EXTT4=
EXTT5=
EXTT6=
EXTT7=
EXTT8=
EXTT9=
EXTT10=
PLAYORDER=
